<svg width="19" height="16" viewBox="0 0 19 16" fill="none" xmlns="http://www.w3.org/2000/svg">
<path d="M0.277418 0.0746889C0.124482 0.152935 0 0.362777 0 0.533496C0 0.711329 0.124482 0.914057 0.284531 0.995859C0.416127 1.06344 0.490817 1.06699 1.58982 1.06699H2.75995L4.0439 5.5697L5.33141 10.0724L5.22826 10.2787C5.05043 10.6308 4.97219 10.9082 4.97219 11.2034C4.97219 11.9432 5.45233 12.5621 6.17077 12.7506C6.32371 12.7897 6.57979 12.8039 7.11328 12.8075C7.76771 12.811 7.82461 12.8146 7.66456 12.8537C7.36936 12.9248 7.14529 13.0529 6.91411 13.2805C6.28459 13.9136 6.28459 14.8988 6.91411 15.5247C7.55075 16.1578 8.53238 16.1578 9.15835 15.5283C9.64561 15.0375 9.76654 14.3262 9.47134 13.7002C9.28639 13.3054 8.80269 12.9248 8.38301 12.8395C8.29765 12.8253 9.31485 12.811 10.7233 12.811C12.7612 12.811 13.1809 12.8181 13.0351 12.8537C12.7399 12.9248 12.5158 13.0529 12.2846 13.2805C11.6551 13.9136 11.6551 14.8988 12.2846 15.5247C12.9213 16.1578 13.9029 16.1578 14.5289 15.5283C15.162 14.8917 15.162 13.9136 14.5289 13.2805C14.3048 13.0529 14.0772 12.9248 13.782 12.8537C13.6291 12.8146 13.7429 12.811 14.6285 12.8075C15.5816 12.8039 15.6635 12.8004 15.7915 12.7328C15.9515 12.651 16.076 12.4482 16.076 12.2704C16.076 12.0926 15.9515 11.8899 15.7915 11.8081C15.6528 11.7369 15.5923 11.7369 11.054 11.7369C6.74695 11.7369 6.44819 11.7334 6.33082 11.6729C6.04273 11.5306 5.9716 11.2176 6.14232 10.8655L6.23835 10.6699H10.9438C15.6101 10.6699 15.6528 10.6699 15.795 10.5988C15.8946 10.5454 15.9587 10.4814 16.0049 10.3747C16.0938 10.1827 18.21 2.77063 18.21 2.6497C18.21 2.48965 18.0784 2.28336 17.9255 2.20512C17.7868 2.13399 17.7299 2.13399 10.9794 2.13399H4.17194L3.93365 1.2875C3.64911 0.284531 3.60288 0.181389 3.41793 0.0782461C3.28278 0 3.25433 0 1.8459 0C0.48726 0.00355625 0.401901 0.00711346 0.277418 0.0746889Z" fill="#AEAFBE"/>
</svg>
