<svg width="12" height="8" viewBox="0 0 12 8" fill="none" xmlns="http://www.w3.org/2000/svg">
<path d="M11.9003 0.50212C11.7122 0.125867 11.3119 -0.0462487 10.9036 0.073832C10.7555 0.117862 10.6514 0.18991 10.4993 0.346015C10.3873 0.462093 9.33856 1.67891 8.16578 3.05183C6.99299 4.42075 6.02434 5.54151 6.00833 5.5375C5.99231 5.5375 5.03567 4.42876 3.87889 3.07585C1.22511 -0.034241 1.3612 0.113858 1.10503 0.0378073C0.380544 -0.178338 -0.251881 0.574168 0.100356 1.23061C0.228442 1.46677 5.34388 7.43077 5.53601 7.56687C5.89625 7.82304 6.32053 7.771 6.64876 7.43478C6.74882 7.33071 7.97365 5.90575 9.37059 4.27265C11.2759 2.04716 11.9203 1.26663 11.9563 1.14655C12.0284 0.906391 12.0124 0.734276 11.9003 0.50212Z" fill="#888888"/>
</svg>
