<svg width="16" height="16" viewBox="0 0 16 16" fill="none" xmlns="http://www.w3.org/2000/svg">
<path d="M1.96104 0.0080843C1.64386 0.0592418 1.46652 0.11381 1.21073 0.233178C0.801471 0.430986 0.422905 0.806141 0.228506 1.2154C-0.00340772 1.7031 2.78408e-06 1.68264 2.78408e-06 3.63686C2.78408e-06 5.59107 -0.00340772 5.57061 0.228506 6.05831C0.422905 6.46416 0.804881 6.84614 1.21414 7.04054C1.69843 7.26904 1.68138 7.26904 3.63219 7.26904C5.5864 7.26904 5.56594 7.27245 6.05364 7.04054C6.45949 6.84614 6.84147 6.46416 7.03587 6.0549C7.26437 5.57061 7.26437 5.58766 7.26437 3.63686C7.26437 1.68605 7.26437 1.7031 7.03587 1.21881C6.8517 0.830015 6.45949 0.430986 6.08775 0.246819C5.59323 0.00467396 5.64438 0.0114951 3.75155 0.00126362C2.81367 -0.0021472 2.00879 0.00126362 1.96104 0.0080843Z" fill="white"/>
<path d="M10.6918 0.0080843C10.3746 0.0592418 10.1972 0.11381 9.94144 0.233178C9.53218 0.430986 9.15362 0.806141 8.95922 1.2154C8.72731 1.7031 8.73072 1.68264 8.73072 3.63686C8.73072 5.59107 8.72731 5.57061 8.95922 6.05831C9.15362 6.46416 9.53559 6.84614 9.94485 7.04054C10.4291 7.26904 10.4121 7.26904 12.3629 7.26904C14.3171 7.26904 14.2967 7.27245 14.7844 7.04054C15.1902 6.84614 15.5722 6.46416 15.7666 6.0549C15.9951 5.57061 15.9951 5.58766 15.9951 3.63686C15.9951 1.68605 15.9951 1.7031 15.7666 1.21881C15.5824 0.830015 15.1902 0.430986 14.8185 0.246819C14.3239 0.00467396 14.3751 0.0114951 12.4823 0.00126362C11.5444 -0.0021472 10.7395 0.00126362 10.6918 0.0080843Z" fill="white"/>
<path d="M1.96104 8.73904C1.64386 8.7902 1.46652 8.84477 1.21073 8.96413C0.801471 9.16194 0.422905 9.5371 0.228506 9.94636C-0.00340772 10.4341 2.78408e-06 10.4136 2.78408e-06 12.3678C2.78408e-06 14.322 -0.00340772 14.3016 0.228506 14.7893C0.422905 15.1951 0.804881 15.5771 1.21414 15.7715C1.69843 16 1.68138 16 3.63219 16C5.5864 16 5.56594 16.0034 6.05364 15.7715C6.45949 15.5771 6.84147 15.1951 7.03587 14.7859C7.26437 14.3016 7.26437 14.3186 7.26437 12.3678C7.26437 10.417 7.26437 10.4341 7.03587 9.94977C6.8517 9.56097 6.45949 9.16194 6.08775 8.97778C5.59323 8.73563 5.64438 8.74245 3.75155 8.73222C2.81367 8.72881 2.00879 8.73222 1.96104 8.73904Z" fill="white"/>
<path d="M10.6918 8.73904C10.3746 8.7902 10.1972 8.84477 9.94144 8.96413C9.53218 9.16194 9.15362 9.5371 8.95922 9.94636C8.72731 10.4341 8.73072 10.4136 8.73072 12.3678C8.73072 14.322 8.72731 14.3016 8.95922 14.7893C9.15362 15.1951 9.53559 15.5771 9.94485 15.7715C10.4291 16 10.4121 16 12.3629 16C14.3171 16 14.2967 16.0034 14.7844 15.7715C15.1902 15.5771 15.5722 15.1951 15.7666 14.7859C15.9951 14.3016 15.9951 14.3186 15.9951 12.3678C15.9951 10.417 15.9951 10.4341 15.7666 9.94977C15.5824 9.56097 15.1902 9.16194 14.8185 8.97778C14.3239 8.73563 14.3751 8.74245 12.4823 8.73222C11.5444 8.72881 10.7395 8.73222 10.6918 8.73904Z" fill="white"/>
</svg>
