<svg width="59" height="80" viewBox="0 0 59 80" fill="none" xmlns="http://www.w3.org/2000/svg">
<path d="M25.4793 0.177206C16.9285 1.71318 10.6262 7.01784 8.50438 14.4919C8.18768 15.6478 8.15601 16.0912 8.10851 22.9635L8.04517 30.2158L9.43863 29.1866C10.1987 28.6165 11.6238 27.6981 12.6056 27.1597L14.3791 26.1621L14.3949 21.7125C14.3949 17.8172 14.4266 17.1204 14.7116 16.0437C15.9151 11.3249 20.333 7.61956 26.081 6.51113C27.7753 6.19443 31.0848 6.2261 32.8425 6.5903C38.353 7.73041 42.6759 11.4516 43.8476 16.0437C44.1327 17.1204 44.1643 17.8013 44.1643 21.7284V26.1779L44.7661 26.463C45.7795 26.9539 47.9172 28.284 49.2473 29.2657L50.5141 30.2158L50.4666 22.9635L50.4033 15.7111L49.9916 14.286C47.9805 7.3187 42.1533 2.17239 34.2993 0.414728C32.4149 -0.0128117 27.3003 -0.13949 25.4793 0.177206Z" fill="#0076D6"/>
<path d="M24.9727 27.4443C20.5231 28.1252 16.0102 29.9462 12.3365 32.5431C10.373 33.9207 6.71514 37.5786 5.32168 39.5421C3.24732 42.4874 1.36298 46.8261 0.618741 50.3414C0.0486883 53.0492 -0.0463205 54.8385 0.0170187 62.3442C0.0961927 70.4675 0.0803579 70.3249 1.34714 72.8743C2.97813 76.168 5.73338 78.5115 9.32788 79.6358L10.5155 80H29.2797H48.044L49.2316 79.6358C52.8261 78.5115 55.5813 76.168 57.2123 72.8743C58.4791 70.3249 58.4633 70.4675 58.5424 62.3442C58.6058 54.8385 58.5108 53.0492 57.9407 50.3414C56.1197 41.7273 50.2608 34.1583 42.3276 30.2154C39.4298 28.7744 36.6746 27.9035 33.4759 27.4285C31.5124 27.1276 26.8887 27.1434 24.9727 27.4443ZM34.1885 33.9682C43.8161 36.2326 50.8942 44.0233 52.0818 53.6351C52.1927 54.6327 52.2402 57.4354 52.2085 61.9483L52.161 68.7573L51.6543 69.8341C50.9892 71.2434 49.8175 72.4626 48.4715 73.1277L47.4106 73.6661H29.2797H11.1489L10.2621 73.2227C8.50447 72.3676 7.23769 70.9425 6.63596 69.1532C6.30343 68.1714 6.30343 67.9814 6.36677 60.6974C6.41428 54.5693 6.47762 53.0333 6.68347 52.0516C7.3802 48.8371 8.77366 45.6227 10.5472 43.1366C11.7664 41.4264 14.2842 38.9087 16.0577 37.6577C18.4804 35.9476 21.7582 34.5383 24.6876 33.9366C26.5245 33.5565 26.6353 33.5565 29.8339 33.604C32.13 33.6515 33.1593 33.7307 34.1885 33.9682Z" fill="#0076D6"/>
<path d="M25.5585 38.2753C19.082 39.6371 13.809 44.3242 11.7189 50.5631C10.8479 53.1759 10.7529 54.1418 10.7529 61.1883C10.7529 68.2664 10.7688 68.4089 11.7347 68.9948C12.2572 69.3115 12.4789 69.3115 29.2796 69.3115C46.0804 69.3115 46.3021 69.3115 46.8246 68.9948C47.7905 68.4089 47.8064 68.2664 47.8064 61.1883C47.8064 56.1211 47.7589 54.4902 47.5688 53.3817C46.2387 45.781 40.459 39.8113 32.9692 38.2912C30.8473 37.8478 27.6012 37.8478 25.5585 38.2753ZM38.4955 47.5545C39.6039 48.3304 40.079 49.6447 39.7306 50.9432C39.5723 51.5765 38.9705 52.2258 34.2993 56.9287C31.4015 59.8423 28.7729 62.3442 28.4562 62.5184C27.807 62.8509 26.6986 62.9143 26.0018 62.6451C25.7643 62.5501 24.1175 61.0458 22.344 59.2881C19.9213 56.8654 19.082 55.9311 18.892 55.4244C18.1953 53.6034 19.5254 51.4815 21.4889 51.2915C22.819 51.1648 23.3258 51.4499 25.3209 53.4134L27.1578 55.2186L30.9423 51.4024C33.2858 49.0588 34.9802 47.4595 35.376 47.2853C36.3103 46.8261 37.6246 46.937 38.4955 47.5545Z" fill="#0076D6"/>
</svg>
