<svg width="67" height="80" viewBox="0 0 67 80" fill="none" xmlns="http://www.w3.org/2000/svg">
<path d="M29.9225 0.204891C25.6542 0.861546 21.8394 2.89405 18.8532 6.06787C15.5699 9.5544 13.8657 13.5881 13.6312 18.4192C13.3029 25.1734 16.6174 31.6305 22.3397 35.3672C25.1539 37.212 27.8587 38.1501 31.142 38.4159C37.2238 38.8849 42.4145 36.9775 46.6046 32.7093C49.9348 29.3322 51.6233 25.6424 52.0298 20.9364C52.5927 14.6513 50.2162 8.80393 45.4789 4.70766C42.4145 2.08105 39.6003 0.767738 35.7073 0.204891C33.8311 -0.0608978 31.6423 -0.0765343 29.9225 0.204891Z" fill="#0076D6"/>
<path d="M15.7261 38.7602C8.65923 39.5107 3.74996 44.5763 1.46731 53.5193C-0.049251 59.4761 -0.440117 66.6368 0.52923 70.561C1.3266 73.7036 3.93758 76.8931 6.95506 78.4253C8.31527 79.1132 10.2696 79.676 11.9112 79.8636C12.8806 79.9887 20.2601 80.02 34.3782 79.9887L55.4068 79.9418L56.7357 79.5666C61.6762 78.222 65.0533 74.9075 66.2885 70.2484C66.9295 67.825 66.8513 62.0402 66.1008 57.4749C64.4592 47.3124 60.3004 41.2149 53.7182 39.3074C52.2173 38.8697 49.5281 38.5413 48.7308 38.6977C47.9647 38.8384 46.9015 39.4012 44.4938 40.9491C41.9297 42.6063 41.5701 42.794 39.6471 43.5131C37.4269 44.3418 35.5977 44.7014 33.4557 44.7014C31.2669 44.7014 29.5784 44.3887 27.3582 43.607C25.2632 42.8565 25.1694 42.8096 21.8861 40.7302C20.1663 39.6358 18.8843 38.9322 18.384 38.7915C17.5084 38.5726 17.5084 38.5726 15.7261 38.7602Z" fill="#0076D6"/>
</svg>
