<svg width="80" height="80" viewBox="0 0 80 80" fill="none" xmlns="http://www.w3.org/2000/svg">
<g clip-path="url(#clip0_407_401)">
<path d="M37.8125 0.09375C34.9844 0.453125 32.5781 1.1875 30.1875 2.42188C25.2969 4.92188 21.4219 9.42188 19.7031 14.6094C18.7812 17.4062 18.7188 17.9375 18.6406 23.4688L18.5625 28.5938H21.3906H24.2188V25.0312C24.2344 19.75 24.4375 18.1719 25.4688 15.5C26.8125 12 30.1875 8.53125 33.7031 7.04688C36.0625 6.03125 37 5.85938 40 5.85938C42.3906 5.85938 42.8906 5.90625 43.9688 6.21875C49.6562 7.85938 53.7812 12.0469 55.2344 17.6094C55.5938 19.0156 55.7812 21.5156 55.7812 25.1875V28.5938H58.6094H61.4375L61.3594 23.4688C61.2812 17.9375 61.2188 17.4062 60.2969 14.625C57.9375 7.51562 51.7656 2.01562 44.4062 0.46875C42.9219 0.15625 39.0625 -0.0625 37.8125 0.09375Z" fill="#0076D6"/>
<path d="M14.3125 31.6562C13.7812 31.8281 13.3125 32.1406 12.7188 32.7188C11.4688 33.9844 11.4062 34.2969 11.4062 39.7188V44.2188H40H68.5938V39.7188C68.5938 34.3125 68.5312 33.9844 67.2812 32.7188C65.8438 31.2969 68.2031 31.4062 39.9375 31.4219C18.3125 31.4219 14.9844 31.4531 14.3125 31.6562ZM20.5469 34.4375C21.125 34.6875 21.4062 35.0938 21.4062 35.7031C21.4062 36.8125 20.7031 37.1875 18.6719 37.1875H17.1875V38.6719C17.1875 40.75 16.8125 41.4062 15.625 41.4062C15.0156 41.4062 14.4375 40.8438 14.2969 40.1094C14.2344 39.7969 14.2188 38.5625 14.25 37.375C14.2969 35.3125 14.3281 35.1562 14.6719 34.7812C15.1406 34.2812 15.2656 34.2656 17.8594 34.2344C19.4062 34.2188 20.1562 34.2812 20.5469 34.4375Z" fill="#0076D6"/>
<path d="M0.40625 47.6719L0 48.1562V55.6406C0 63.3281 0.015625 63.5625 0.609375 64.0156C0.96875 64.2969 79.0312 64.2969 79.3906 64.0156C79.9844 63.5625 80 63.3281 80 55.6406V48.1562L79.5938 47.6719L79.1875 47.1875H40H0.8125L0.40625 47.6719ZM9.54688 50.4531C9.95312 50.875 10 51.0156 10 51.9531V53L10.4375 52.7188C11.6719 51.8906 12.5938 51.4062 12.9062 51.4062C13.5 51.4062 14.2188 52.1406 14.2188 52.7344C14.2188 53.5625 14.0938 53.7188 12.6406 54.7031C11.875 55.2188 11.25 55.6719 11.25 55.7031C11.25 55.7344 11.875 56.1875 12.6406 56.7031C14.0938 57.6875 14.2188 57.8438 14.2188 58.6406C14.2031 59.2031 13.9844 59.5469 13.4844 59.8125C12.8906 60.1406 12.4531 60.0156 11.25 59.2188L10.0781 58.4375L10 59.5469C9.9375 60.5156 9.875 60.7031 9.48438 61.0312C9 61.4375 8.45312 61.5156 7.92188 61.2188C7.34375 60.9062 7.20312 60.5781 7.1875 59.4844C7.1875 58.9062 7.15625 58.4375 7.10938 58.4375C7.07812 58.4375 6.5 58.7969 5.82812 59.2344C4.78125 59.9062 4.53125 60.0156 4.0625 59.9375C3.48438 59.8438 3.03125 59.4219 2.875 58.8438C2.71875 58.1719 3.07812 57.6875 4.53125 56.7188C5.29688 56.2031 5.9375 55.75 5.9375 55.7188C5.9375 55.6875 5.375 55.2969 4.70312 54.8594C3.34375 53.9688 3.0625 53.6875 2.89062 53.1562C2.65625 52.3906 3.46875 51.4062 4.34375 51.4062C4.51562 51.4062 5.1875 51.75 5.84375 52.1875C6.5 52.6094 7.07812 52.9688 7.10938 52.9688C7.15625 52.9688 7.1875 52.4844 7.1875 51.8906C7.1875 50.875 7.21875 50.7812 7.67188 50.4062C8.3125 49.8594 8.96875 49.875 9.54688 50.4531ZM24.9844 50.2344C25.5312 50.5156 25.6406 50.75 25.7656 52L25.8594 52.9688L27.0312 52.1875C28.0312 51.5 28.2812 51.4062 28.75 51.4688C29.3906 51.5625 30 52.1875 30 52.7344C30 53.4531 29.6562 53.8594 28.2656 54.7969L26.875 55.7344L28.125 56.5625C28.8281 57.0156 29.5312 57.5625 29.7031 57.7812C30.1406 58.3438 30.0781 59 29.5469 59.5469C28.875 60.2031 28.3906 60.1406 26.9688 59.2188L25.7812 58.4375V59.2344C25.7812 60.625 25.25 61.4062 24.2969 61.4062C23.3438 61.4062 22.8125 60.6719 22.8125 59.3125V58.4375L21.625 59.2188C20.2031 60.1406 19.7188 60.2031 19.0469 59.5469C18.5625 59.0625 18.4844 58.5469 18.7656 57.9375C18.8438 57.7344 19.5469 57.1562 20.3281 56.6562L21.7188 55.7344L20.4375 54.875C19.7188 54.4062 19.0156 53.875 18.875 53.6875C18.4844 53.2188 18.5312 52.4375 18.9688 51.9219C19.5625 51.2344 20.2969 51.3281 21.6406 52.2344L22.7344 52.9688L22.8125 52C22.9062 50.8906 23.1406 50.3594 23.6406 50.1562C24.1406 49.9531 24.5 49.9688 24.9844 50.2344ZM40.9531 50.4531C41.3594 50.875 41.4062 51.0156 41.4062 51.9375C41.4062 52.5 41.4375 52.9688 41.4844 52.9688C41.5156 52.9688 42.0938 52.6094 42.75 52.1875C43.4062 51.75 44.0781 51.4062 44.2344 51.4062C45.4219 51.4062 46.125 52.8906 45.3594 53.7812C45.2344 53.9219 44.5625 54.4062 43.8906 54.8594C43.2188 55.2969 42.6562 55.6875 42.6562 55.7188C42.6562 55.75 43.2812 56.1875 44.0469 56.7031C45.5938 57.75 45.8906 58.2188 45.5938 59.0625C45.3906 59.6562 44.6562 60.0625 44.0469 59.9375C43.7969 59.8906 43.125 59.5312 42.5469 59.1406L41.4844 58.4375L41.4062 59.5469C41.3438 60.5156 41.2812 60.7031 40.8906 61.0312C40.3281 61.5156 39.6719 61.5156 39.1094 61.0312C38.7188 60.7031 38.6562 60.5156 38.5938 59.5469L38.5156 58.4375L37.4531 59.1406C36.875 59.5312 36.2031 59.8906 35.9531 59.9375C35.3438 60.0625 34.6094 59.6562 34.4062 59.0625C34.1094 58.2188 34.4062 57.75 35.9688 56.7031C36.75 56.1719 37.3125 55.7031 37.25 55.625C37.1719 55.5625 36.5625 55.1406 35.8906 54.6875C34.6094 53.8438 34.2031 53.2812 34.3438 52.5625C34.4375 52.0781 35.2188 51.4062 35.6875 51.4062C35.8906 51.4062 36.5938 51.75 37.25 52.1875C37.9062 52.6094 38.4844 52.9688 38.5156 52.9688C38.5625 52.9688 38.5938 52.5 38.5938 51.9375C38.5938 51.0156 38.6406 50.875 39.0469 50.4531C39.3594 50.1406 39.6562 50 40 50C40.3438 50 40.6406 50.1406 40.9531 50.4531ZM56.3125 50.1562C56.8594 50.3594 57.0938 50.8594 57.1875 52L57.2656 52.9688L58.3594 52.2344C59.7031 51.3281 60.4375 51.2344 61.0312 51.9219C61.4688 52.4375 61.5156 53.2188 61.125 53.6875C60.9844 53.875 60.2812 54.4062 59.5625 54.875L58.2812 55.7344L59.6719 56.6562C60.4531 57.1562 61.1562 57.7344 61.2344 57.9375C61.5156 58.5469 61.4375 59.0625 60.9531 59.5469C60.2812 60.2031 59.7969 60.1406 58.375 59.2188L57.1875 58.4375V59.3125C57.1875 60.6719 56.6562 61.4062 55.7031 61.4062C54.75 61.4062 54.2188 60.625 54.2188 59.2344V58.4375L53.0312 59.2188C51.6094 60.1406 51.125 60.2031 50.4531 59.5469C49.9219 59 49.8594 58.3438 50.2969 57.7812C50.4688 57.5625 51.1719 57.0156 51.8594 56.5625C52.5625 56.1094 53.125 55.7188 53.125 55.7031C53.125 55.6875 52.5625 55.2969 51.8594 54.8438C50.4375 53.8906 50 53.4219 50 52.7969C50 52.1875 50.5781 51.5625 51.25 51.4688C51.7188 51.4062 51.9688 51.5 52.9688 52.1875L54.1406 52.9688L54.2344 52C54.3594 50.7656 54.4688 50.5156 54.9844 50.2344C55.4688 49.9688 55.7812 49.9531 56.3125 50.1562ZM76.5 58.8281C77.0312 59.1875 77.2656 59.9062 77.0312 60.4688C76.6406 61.4062 76.6406 61.4062 71.3906 61.4062H66.6094L66.1875 61.0156C65.875 60.7344 65.7812 60.4844 65.7812 60C65.7812 59.5156 65.875 59.2656 66.1875 58.9844L66.6094 58.5938H71.3906C75.3438 58.5938 76.2344 58.6406 76.5 58.8281Z" fill="#0076D6"/>
<path d="M11.4062 71.6877C11.4062 77.094 11.4688 77.4221 12.7031 78.6721C14.1562 80.1252 11.6719 80.0002 40 80.0002C68.3281 80.0002 65.8438 80.1252 67.2969 78.6721C68.5312 77.4221 68.5938 77.094 68.5938 71.6877V67.1877H40H11.4062V71.6877Z" fill="#0076D6"/>
</g>
<defs>
<clipPath id="clip0_407_401">
<rect width="80" height="80" fill="white"/>
</clipPath>
</defs>
</svg>
