<svg width="24" height="24" viewBox="0 0 24 24" fill="none" xmlns="http://www.w3.org/2000/svg">
<g clip-path="url(#clip0_410_646)">
<path d="M11.1328 0.0700912C8.19375 0.482592 5.92969 2.82634 5.625 5.77009C5.60156 6.03259 5.57812 7.06384 5.57812 8.06697V9.89041H4.88906C4.26094 9.89041 4.17188 9.89978 3.95625 10.0029C3.68438 10.1295 3.39375 10.4435 3.32812 10.6826C3.3 10.7904 3.28125 13.0732 3.28125 16.9685V23.0857L3.39375 23.3248C3.45469 23.456 3.58594 23.6295 3.68438 23.7092C4.05938 24.0185 3.49219 23.9998 12 23.9998C20.5078 23.9998 19.9406 24.0185 20.3156 23.7092C20.4141 23.6295 20.5453 23.456 20.6063 23.3248L20.7188 23.0857V16.9685C20.7188 13.0732 20.7 10.7904 20.6719 10.6826C20.6063 10.4435 20.3156 10.1295 20.0438 10.0029C19.8281 9.89978 19.7391 9.89041 19.1156 9.89041H18.4219V8.06697C18.4219 7.06384 18.3984 6.03259 18.375 5.77009C18.0047 2.16541 14.7047 -0.431471 11.1328 0.0700912ZM12.8344 2.4654C14.1703 2.73728 15.3094 3.72634 15.7969 5.03415C16.0125 5.60134 16.0313 5.82166 16.0313 7.90759V9.89041H12H7.96875V7.90759C7.96875 5.82166 7.9875 5.60134 8.20312 5.03415C8.68594 3.74041 9.81563 2.75134 11.1328 2.47009C11.5734 2.37165 12.3844 2.37165 12.8344 2.4654Z" fill="#555555"/>
</g>
<defs>
<clipPath id="clip0_410_646">
<rect width="24" height="24" fill="white"/>
</clipPath>
</defs>
</svg>
