<svg width="14" height="16" viewBox="0 0 14 16" fill="none" xmlns="http://www.w3.org/2000/svg">
<path d="M5.98446 0.0409298C5.13081 0.17226 4.36784 0.578761 3.7706 1.21353C3.11394 1.91083 2.77311 2.71758 2.7262 3.6838C2.66054 5.03463 3.32344 6.32605 4.4679 7.07338C5.03075 7.44236 5.5717 7.62997 6.22836 7.68313C7.44473 7.77694 8.48287 7.39546 9.32089 6.54181C9.98692 5.86639 10.3246 5.12844 10.4059 4.18723C10.5185 2.93021 10.0432 1.76074 9.09575 0.941484C8.48287 0.416161 7.92002 0.153499 7.14142 0.0409298C6.76619 -0.012228 6.32842 -0.0153551 5.98446 0.0409298Z" fill="#AEAFBE"/>
<path d="M3.14522 7.75204C1.73185 7.90214 0.749992 8.91526 0.293461 10.7039C-0.0098502 11.8952 -0.0880233 13.3274 0.105846 14.1122C0.265319 14.7407 0.787516 15.3786 1.39101 15.6851C1.66305 15.8226 2.05392 15.9352 2.38225 15.9727C2.57612 15.9977 4.05202 16.004 6.87564 15.9977L11.0814 15.9884L11.3471 15.9133C12.3352 15.6444 13.0107 14.9815 13.2577 14.0497C13.3859 13.565 13.3703 12.408 13.2202 11.495C12.8918 9.46247 12.0601 8.24297 10.7436 7.86149C10.4435 7.77393 9.90563 7.70827 9.74615 7.73954C9.59293 7.76768 9.3803 7.88025 8.89876 8.18981C8.38594 8.52127 8.31402 8.55879 7.92941 8.70263C7.48539 8.86836 7.11954 8.94028 6.69115 8.94028C6.25338 8.94028 5.91567 8.87774 5.47165 8.72139C5.05264 8.5713 5.03388 8.56192 4.37722 8.14604C4.03326 7.92715 3.77686 7.78644 3.67679 7.7583C3.50169 7.71452 3.50169 7.71452 3.14522 7.75204Z" fill="#AEAFBE"/>
</svg>
