<svg width="16" height="16" viewBox="0 0 16 16" fill="none" xmlns="http://www.w3.org/2000/svg">
<path d="M0.471255 0.0454378C0.318146 0.101682 0.14004 0.264165 0.0650476 0.417274C-0.0161938 0.586006 -0.0224431 0.895348 0.052549 1.05471C0.080671 1.1172 1.44928 2.62642 3.09598 4.41373C5.13014 6.61974 6.11128 7.70713 6.16128 7.80712L6.23315 7.95398L6.24877 11.7973C6.26439 15.5844 6.26439 15.6438 6.32689 15.75C6.39875 15.8719 6.61748 16 6.75809 16C6.96119 16 7.05181 15.9125 8.1017 14.7064C9.39843 13.219 9.34532 13.2847 9.45468 13.0878L9.54529 12.9222L9.56092 10.4381L9.57654 7.95398L9.66091 7.79462C9.71715 7.68838 10.717 6.57912 12.6918 4.43872C14.3135 2.67953 15.6728 1.19219 15.7165 1.1297C15.829 0.967216 15.8446 0.623502 15.7478 0.423523C15.6665 0.25479 15.479 0.0860586 15.3134 0.0391884C15.1353 -0.0170555 0.621239 -0.010807 0.471255 0.0454378Z" fill="white"/>
</svg>
