<svg width="16" height="16" viewBox="0 0 16 16" fill="none" xmlns="http://www.w3.org/2000/svg">
<path d="M13.3129 2.03169C13.2691 2.05044 12.8535 2.44732 12.3847 2.91294L11.5379 3.75982L11.1347 3.60357C10.4847 3.34419 9.86598 3.18169 9.14098 3.07232C8.56598 2.98794 7.3566 2.99732 6.75348 3.09107C5.16285 3.33482 3.7566 3.96919 2.42535 5.04107C2.00348 5.37857 1.20348 6.18482 0.862854 6.60982C0.494104 7.07544 0.0378543 7.75982 0.0128543 7.89107C-0.0215207 8.07857 0.0253543 8.20357 0.281604 8.58794C1.0316 9.72232 2.1066 10.8036 3.18785 11.5161C3.3691 11.6348 3.52223 11.7348 3.52848 11.7411C3.53785 11.7473 3.20348 12.0942 2.79098 12.5098C2.1441 13.1567 2.03473 13.2817 2.01598 13.3848C1.9816 13.5723 2.02535 13.7192 2.15348 13.8473C2.2816 13.9754 2.42848 14.0192 2.61598 13.9848C2.72223 13.9661 3.32535 13.3723 8.33785 8.36607C12.4535 4.25044 13.9472 2.73794 13.9722 2.65982C14.041 2.45044 13.966 2.22544 13.7754 2.08482C13.6785 2.01294 13.4285 1.98482 13.3129 2.03169ZM9.06285 4.07857C9.60035 4.15982 10.1972 4.31607 10.6691 4.50044L10.7629 4.53482L10.2504 5.04732L9.73785 5.55982L9.65348 5.50044C9.49098 5.38169 8.9816 5.15669 8.73473 5.08794C8.40348 5.00044 7.65973 4.99107 7.3316 5.07232C6.75973 5.21607 6.3066 5.47232 5.88785 5.88794C5.47223 6.30669 5.21598 6.76294 5.07223 7.33169C4.98785 7.66919 4.99723 8.37544 5.08785 8.71919C5.15973 8.97857 5.36598 9.45044 5.49723 9.64107L5.55973 9.73794L4.92535 10.3723L4.29098 11.0067L3.9941 10.8223C2.9566 10.1692 1.90348 9.17544 1.25035 8.23169L1.09098 8.00044L1.24723 7.77232C1.80035 6.97232 2.76285 6.00982 3.57848 5.43482C4.67848 4.65982 5.97848 4.16919 7.2691 4.03482C7.6566 3.99419 8.6691 4.01919 9.06285 4.07857ZM8.4441 6.05982C8.63785 6.10982 9.00035 6.25982 9.00035 6.29107C9.00035 6.29419 8.39098 6.90669 7.6441 7.65357L6.28785 9.00982L6.20348 8.84732C6.09098 8.61919 6.00035 8.25044 6.00035 8.00357C6.00348 6.72544 7.2316 5.75044 8.4441 6.05982Z" fill="#555555"/>
<path d="M12.9289 5.18158C12.7445 5.36595 12.5945 5.53158 12.5977 5.5472C12.5977 5.56595 12.7195 5.6722 12.8695 5.78783C13.5102 6.27845 14.3539 7.17845 14.8102 7.85033L14.9102 8.00033L14.782 8.18783C14.2445 8.98158 13.3102 9.92845 12.4852 10.5191C11.0727 11.5316 9.42267 12.0472 7.78205 11.9878C7.26955 11.9722 7.11017 11.9535 6.58517 11.8566L6.30705 11.8035L5.90392 12.2066C5.6133 12.4972 5.5133 12.6128 5.54455 12.6316C5.63205 12.6816 6.37267 12.8472 6.79767 12.9128C7.38205 13.0035 8.57267 13.0097 9.14142 12.9285C11.157 12.6316 12.8383 11.7628 14.3758 10.2222C14.9258 9.66908 15.2852 9.2347 15.6883 8.63158C16.0914 8.03158 16.0914 7.97845 15.7258 7.41908C15.3758 6.88783 14.8977 6.30345 14.3914 5.79408C13.9633 5.36283 13.3664 4.84408 13.3008 4.84408C13.282 4.84408 13.1133 4.99408 12.9289 5.18158Z" fill="#555555"/>
<path d="M10.4249 7.68435L9.9937 8.1156L9.95307 8.36248C9.90307 8.64998 9.72495 9.03123 9.53432 9.25935C9.24057 9.61248 8.79057 9.8781 8.36245 9.9531L8.11557 9.99373L7.67495 10.4344C7.43432 10.675 7.24682 10.8812 7.2562 10.8906C7.2937 10.9281 7.77182 10.9969 8.00307 11C8.7937 11.0031 9.52182 10.6937 10.1093 10.1094C10.7124 9.50623 10.9781 8.87185 10.9812 8.03123C10.9843 7.6406 10.9312 7.24998 10.8812 7.24998C10.8687 7.24998 10.6656 7.44373 10.4249 7.68435Z" fill="#555555"/>
</svg>
