<svg width="82" height="80" viewBox="0 0 82 80" fill="none" xmlns="http://www.w3.org/2000/svg">
<path d="M24.1971 0.140018C20.228 0.809502 16.8168 3.80624 15.5416 7.74344L15.2706 8.58827H8.57577C2.19973 8.58827 1.86499 8.60421 1.27521 8.90707C0.557903 9.27369 0 10.1982 0 11.0112C0 11.7444 0.605724 12.7168 1.27521 13.0674C1.78529 13.3544 2.31131 13.3703 8.54389 13.3703H15.2706L15.5416 14.1992C16.6893 17.7379 19.3991 20.4318 22.9537 21.5316C24.4999 22.0098 27.4329 22.0417 28.9313 21.5954C31.7686 20.7346 34.5422 18.4871 35.7536 16.0801C37.5389 12.4936 37.3476 8.26947 35.2595 5.06551C32.8685 1.41523 28.4212 -0.561346 24.1971 0.140018ZM27.1141 4.92205C29.0747 5.28867 30.7644 6.6117 31.6252 8.42887C32.0715 9.35339 32.1193 9.62438 32.1193 10.9793C32.1193 12.3342 32.0715 12.6052 31.6252 13.5297C29.7602 17.4828 24.739 18.3595 21.6467 15.2672C21.2163 14.8368 20.6743 14.0717 20.4352 13.5616C20.0526 12.7646 20.0048 12.4617 20.0048 10.9793C20.0048 9.49685 20.0526 9.19399 20.4352 8.39699C21.2322 6.6914 23.0334 5.30461 24.8984 4.93799C25.8708 4.74671 26.1418 4.74671 27.1141 4.92205Z" fill="#0076D6"/>
<path d="M42.2412 8.89095C41.3645 9.35321 41.0457 9.91112 41.0457 10.9791C41.0457 12.063 41.3804 12.6528 42.2571 13.0832C42.7672 13.3542 43.9946 13.3701 61.2896 13.3701C78.999 13.3701 79.812 13.3542 80.338 13.0673C81.0075 12.7166 81.6132 11.7442 81.6132 11.011C81.6132 10.198 81.0553 9.27351 80.338 8.90689C79.7163 8.58809 79.4453 8.58809 61.2577 8.58809C43.5961 8.58809 42.7672 8.60403 42.2412 8.89095Z" fill="#0076D6"/>
<path d="M56.3004 29.1666C55.1368 29.3579 53.2399 30.1389 52.1879 30.8403C50.9764 31.6532 49.2389 33.566 48.5535 34.8731C46.9117 37.9974 46.9276 41.9824 48.5694 45.1386C49.4302 46.7963 51.6299 48.9642 53.2399 49.7452C55.2005 50.6857 56.1091 50.8929 58.261 50.8929C60.4129 50.9089 61.6084 50.622 63.3937 49.6815C65.8485 48.3903 67.8888 45.9674 68.7177 43.3373L68.9887 42.4606L74.5359 42.3809C80.7844 42.2853 80.6728 42.3172 81.3104 41.0898C81.693 40.3246 81.693 39.6552 81.3104 38.89C80.6728 37.6627 80.7844 37.6945 74.5359 37.5989L68.9887 37.5192L68.7177 36.6425C67.6497 33.2791 64.8921 30.5693 61.3693 29.4535C60.1579 29.0869 57.5915 28.9275 56.3004 29.1666ZM60.4926 34.2674C62.1664 34.8891 63.6328 36.4671 64.1589 38.1887C65.0834 41.2492 63.4416 44.5807 60.4448 45.7443C59.2015 46.2225 57.3206 46.2225 56.0932 45.7443C53.7022 44.8198 52.1241 42.5403 52.1241 39.9899C52.1241 35.6542 56.396 32.7372 60.4926 34.2674Z" fill="#0076D6"/>
<path d="M1.27521 37.902C0.605724 38.2526 0 39.2409 0 39.9901C0 40.7393 0.605724 41.7276 1.27521 42.0783C1.80123 42.3652 2.662 42.3811 21.6467 42.3811C43.5962 42.3811 42.1456 42.4449 42.9267 41.361C43.4208 40.6755 43.4208 39.3047 42.9267 38.6193C42.1456 37.5353 43.5962 37.5991 21.6467 37.5991C2.662 37.5991 1.80123 37.615 1.27521 37.902Z" fill="#0076D6"/>
<path d="M21.1205 58.2258C17.2152 59.1185 14.0591 61.9717 12.8955 65.6539L12.6245 66.5306L7.07732 66.6103C0.828805 66.706 0.940386 66.6741 0.302782 67.9015C-0.0797803 68.6825 -0.0797803 69.3361 0.318722 70.1171C0.924446 71.2967 0.988206 71.2967 7.15702 71.3923L12.6245 71.472L12.8955 72.3488C13.7881 75.202 16.2748 77.9278 19.0643 79.0914C20.2438 79.5856 22.1726 80 23.3522 80C23.8463 80 24.8027 79.8884 25.4722 79.745C27.911 79.2508 29.7123 78.2147 31.4179 76.3657C33.3466 74.2775 34.2711 71.8865 34.2711 69.0013C34.2711 65.893 33.3147 63.5817 31.0831 61.3341C29.5847 59.8198 28.5965 59.1822 26.6996 58.5606C25.1375 58.0345 22.6349 57.8751 21.1205 58.2258ZM25.5838 63.2788C27.911 64.1396 29.4891 66.4669 29.4891 69.0013C29.4891 72.4444 26.8112 75.1064 23.3522 75.1064C19.9091 75.1064 17.2152 72.4285 17.2152 69.0173C17.2312 64.6497 21.4712 61.7326 25.5838 63.2788Z" fill="#0076D6"/>
<path d="M39.5633 66.8815C37.8896 67.7104 37.8577 70.229 39.5314 71.0738C40.1531 71.3926 40.4241 71.3926 59.9348 71.3926C79.4455 71.3926 79.7164 71.3926 80.3381 71.0738C81.0554 70.7072 81.6133 69.7826 81.6133 68.9697C81.6133 68.2364 81.0076 67.2641 80.3381 66.9134C79.8121 66.6265 78.9673 66.6105 59.9348 66.6105C41.9862 66.6105 40.0415 66.6424 39.5633 66.8815Z" fill="#0076D6"/>
</svg>
