<svg width="80" height="80" viewBox="0 0 80 80" fill="none" xmlns="http://www.w3.org/2000/svg">
<path d="M34.4397 0.234283C33.6743 0.577896 33.4088 0.952751 32.1125 3.60796L30.8786 6.09137L29.7852 6.41936C27.5205 7.09098 24.8184 8.24678 22.8192 9.37134L21.7103 9.99609L19.5236 8.91839C17.3057 7.82507 16.8059 7.6845 15.9938 7.99688C15.4315 8.19992 8.37173 15.2284 8.05935 15.8844C7.66888 16.7278 7.77821 17.2276 8.91839 19.5236L9.9961 21.7103L9.37134 22.8192C8.24678 24.8184 7.09098 27.5205 6.41937 29.7852L6.09137 30.8786L3.60797 32.1125C0.921515 33.4244 0.56228 33.6743 0.234283 34.4709C-0.0780945 35.2206 -0.0780945 44.7794 0.234283 45.5291C0.56228 46.3257 0.921515 46.5756 3.57673 47.8875L6.06013 49.0902L6.79422 51.3081C7.20031 52.5107 7.99688 54.4319 8.55916 55.5564L9.57438 57.6025L8.68411 60.3358C7.9344 62.6005 7.80945 63.1784 7.88754 63.6783C7.99688 64.2093 8.49668 64.7716 11.8547 68.1453C15.2128 71.5033 15.7907 72.0031 16.3217 72.1125C16.8059 72.1906 17.4151 72.05 19.6954 71.3159L22.46 70.41L23.5377 70.9879C25.6775 72.1281 29.3948 73.6119 31.0504 73.9555C31.3159 74.018 31.6127 74.1585 31.6907 74.2522C31.7845 74.3616 32.1281 75.3612 32.4873 76.5014C33.1902 78.7193 33.6119 79.4065 34.4865 79.7657C35.2206 80.0781 44.7794 80.0781 45.5135 79.7657C46.3881 79.4065 46.8098 78.7193 47.5127 76.5014C47.8719 75.3612 48.2155 74.3616 48.3093 74.2522C48.3873 74.1585 48.6841 74.018 48.9496 73.9555C50.6052 73.6119 54.3225 72.1281 56.4623 70.9879L57.54 70.41L60.3046 71.3159C62.5849 72.05 63.1941 72.1906 63.6782 72.1125C64.2093 72.0031 64.7872 71.5033 68.1453 68.1453C71.5033 64.7872 72.0031 64.2093 72.1125 63.6783C72.1906 63.1941 72.05 62.5849 71.3159 60.3046L70.41 57.54L70.9879 56.4623C72.1281 54.3225 73.6119 50.6052 73.9555 48.9496C74.018 48.6841 74.1585 48.3873 74.2522 48.3093C74.3616 48.2155 75.3612 47.8719 76.5014 47.5127C78.7193 46.8098 79.4065 46.3881 79.7657 45.5135C80.0781 44.7794 80.0781 35.2206 79.7657 34.4865C79.4065 33.5963 78.7193 33.1902 76.5014 32.4873C75.3612 32.1437 74.3616 31.7688 74.2522 31.6751C74.1585 31.5658 73.9242 30.9254 73.7368 30.2538C73.1121 27.9734 71.8626 25.0059 70.6443 22.8504L70.0039 21.7103L71.0816 19.5236C72.2218 17.2276 72.3311 16.7278 71.9407 15.8844C71.6283 15.2284 64.5685 8.19992 64.0062 7.99688C63.1941 7.6845 62.6943 7.82507 60.4764 8.91839L58.2897 9.99609L57.1808 9.37134C55.1816 8.24678 52.4795 7.09098 50.2148 6.41936L49.1214 6.09137L47.8875 3.60796C46.5756 0.921516 46.3257 0.562279 45.5291 0.234283C44.7794 -0.0780945 35.1581 -0.0780945 34.4397 0.234283ZM42.5146 14.4006C50.6677 15.2284 57.7275 19.6798 62.0539 26.7239C63.3971 28.9262 64.6779 32.1749 65.2245 34.7677C66.0992 39.0004 65.8337 43.7954 64.5061 47.8563C61.8977 55.8219 55.8219 61.8977 47.8563 64.5061C42.8583 66.146 37.1417 66.146 32.1437 64.5061C24.1781 61.8977 18.1023 55.8219 15.4939 47.8563C13.854 42.8583 13.854 37.1417 15.4939 32.1437C16.8059 28.1296 18.852 24.7872 21.8196 21.8196C27.3331 16.3061 34.8458 13.6197 42.5146 14.4006Z" fill="#0076D6"/>
<path d="M38.5163 23.6937C38.3445 23.7249 37.8134 23.8342 37.3449 23.9279C33.9556 24.6152 30.6444 27.4266 29.1918 30.8627C28.5514 32.3778 28.364 33.393 28.364 35.3141C28.364 37.2352 28.5514 38.2505 29.1918 39.7655C30.6444 43.186 33.7213 45.81 37.3449 46.7315C38.4538 47.0127 41.5464 47.0127 42.6553 46.7315C46.2789 45.81 49.3558 43.186 50.8084 39.7655C51.4487 38.2505 51.6362 37.2352 51.6362 35.3141C51.6362 34.2989 51.5425 33.1431 51.4175 32.6589C50.3554 28.4574 47.0911 25.1306 42.8896 23.9592C42.093 23.7405 39.0942 23.5531 38.5163 23.6937Z" fill="#0076D6"/>
<path d="M27.6767 48.1222C26.2866 49.7934 25.4432 51.2148 24.6935 53.1515L24.3655 53.9793L25.8024 55.3694C28.6451 58.1027 32.1905 59.9301 36.2202 60.7267C38.0633 61.0859 41.9367 61.0859 43.7798 60.7267C47.8094 59.9301 51.3549 58.1027 54.1976 55.3694L55.6345 53.9793L55.3065 53.1515C54.5412 51.1523 52.8231 48.419 51.7298 47.435C51.4018 47.1382 51.3862 47.1382 50.9645 47.4662C48.5748 49.3873 46.3881 50.5588 43.9828 51.1991C42.6084 51.5584 42.1242 51.6052 40 51.6052C37.8758 51.6052 37.3916 51.5584 36.0172 51.1991C33.5962 50.5431 31.0035 49.1843 29.3323 47.7161C29.0199 47.4194 28.6919 47.1851 28.5982 47.1851C28.5201 47.1851 28.0984 47.6068 27.6767 48.1222Z" fill="#0076D6"/>
</svg>
