<svg width="30" height="6" viewBox="0 0 30 6" fill="none" xmlns="http://www.w3.org/2000/svg">
<path d="M2.34582 0.0932431C1.7699 0.219665 1.38361 0.423344 0.934115 0.844749C0.302007 1.44876 0 2.14408 0 3.00796C0 3.87887 0.302007 4.56716 0.948162 5.1782C2.1281 6.29492 3.91204 6.26683 5.07793 5.10797C6.25787 3.92803 6.25787 2.08789 5.07793 0.90796C4.62141 0.458461 4.10168 0.177524 3.48362 0.0651498C2.97793 -0.026155 2.89365 -0.026155 2.34582 0.0932431Z" fill="#8B8B8B"/>
<path d="M14.4473 0.0582962C12.8881 0.33221 11.7573 1.89843 12.0031 3.43656C12.27 5.07302 13.8081 6.21784 15.3884 5.96499C17.369 5.64192 18.4928 3.57001 17.664 1.76499C17.1091 0.542912 15.7606 -0.173477 14.4473 0.0582962Z" fill="#8B8B8B"/>
<path d="M26.3377 0.0863571C25.7478 0.212779 25.2912 0.465621 24.8417 0.908097C23.9357 1.81412 23.711 3.11345 24.2588 4.30743C24.4836 4.80609 25.1297 5.45225 25.6424 5.69807C26.7802 6.23185 28.0655 6.03519 28.9715 5.17834C29.6177 4.5673 29.9197 3.879 29.9197 3.0081C29.9197 2.14422 29.6177 1.4489 28.9856 0.844886C28.529 0.416458 28.1498 0.219802 27.5387 0.0863571C26.9909 -0.0260177 26.8504 -0.0260177 26.3377 0.0863571Z" fill="#8B8B8B"/>
</svg>
